<mxfile host="app.diagrams.net" modified="2021-04-02T04:40:31.926Z" agent="5.0 (Windows)" etag="Ew3VDTLcRDYHOfUYIhfP" version="13.9.2" type="github">
  <diagram id="Qn-LxWEqkJF33rU7SuKG" name="Page-1">
    <mxGraphModel dx="1422" dy="763" grid="1" gridSize="10" guides="1" tooltips="1" connect="1" arrows="1" fold="1" page="1" pageScale="1" pageWidth="827" pageHeight="1169" math="0" shadow="0">
      <root>
        <mxCell id="0" />
        <mxCell id="1" parent="0" />
        <mxCell id="uf-fBz1fnUQCzqwpO4HO-1" value="Терминатор" style="strokeWidth=2;html=1;shape=mxgraph.flowchart.terminator;whiteSpace=wrap;fontFamily=Times New Roman;fontSize=16;" parent="1" vertex="1">
          <mxGeometry x="80" y="210" width="180" height="100" as="geometry" />
        </mxCell>
        <mxCell id="uf-fBz1fnUQCzqwpO4HO-2" value="Процесс" style="rounded=0;whiteSpace=wrap;html=1;strokeWidth=2;fontFamily=Times New Roman;fontSize=16;" parent="1" vertex="1">
          <mxGeometry x="80" y="330" width="170" height="90" as="geometry" />
        </mxCell>
        <mxCell id="uf-fBz1fnUQCzqwpO4HO-3" value="Предопределнный процесс" style="shape=process;whiteSpace=wrap;html=1;backgroundOutline=1;strokeWidth=2;fontFamily=Times New Roman;fontSize=16;" parent="1" vertex="1">
          <mxGeometry x="80" y="440" width="170" height="90" as="geometry" />
        </mxCell>
        <mxCell id="uf-fBz1fnUQCzqwpO4HO-4" value="Решение" style="strokeWidth=2;html=1;shape=mxgraph.flowchart.decision;whiteSpace=wrap;fontFamily=Times New Roman;fontSize=16;" parent="1" vertex="1">
          <mxGeometry x="500" y="210" width="180" height="100" as="geometry" />
        </mxCell>
        <mxCell id="uf-fBz1fnUQCzqwpO4HO-6" value="Граница цикла 1" style="strokeWidth=2;html=1;shape=mxgraph.flowchart.loop_limit;whiteSpace=wrap;fontFamily=Times New Roman;fontSize=16;" parent="1" vertex="1">
          <mxGeometry x="280" y="210" width="180" height="100" as="geometry" />
        </mxCell>
        <mxCell id="uf-fBz1fnUQCzqwpO4HO-7" value="Граница цикла 2" style="strokeWidth=2;html=1;shape=mxgraph.flowchart.loop_limit;whiteSpace=wrap;direction=west;fontFamily=Times New Roman;fontSize=16;" parent="1" vertex="1">
          <mxGeometry x="280" y="330" width="180" height="90" as="geometry" />
        </mxCell>
        <mxCell id="uf-fBz1fnUQCzqwpO4HO-8" value="&lt;div style=&quot;font-size: 16px;&quot;&gt;Комментарий&lt;/div&gt;" style="strokeWidth=2;html=1;shape=mxgraph.flowchart.annotation_2;align=left;labelPosition=right;pointerEvents=1;fontFamily=Times New Roman;fontSize=16;" parent="1" vertex="1">
          <mxGeometry x="500" y="330" width="50" height="60" as="geometry" />
        </mxCell>
        <mxCell id="W5fheMRVYcZ8pH724TSa-1" value="Подготовка" style="shape=hexagon;perimeter=hexagonPerimeter2;whiteSpace=wrap;html=1;fixedSize=1;fontFamily=Times New Roman;fontSize=16;strokeWidth=2;" vertex="1" parent="1">
          <mxGeometry x="280" y="440" width="180" height="90" as="geometry" />
        </mxCell>
        <mxCell id="W5fheMRVYcZ8pH724TSa-4" value="Соеденитель" style="ellipse;whiteSpace=wrap;html=1;aspect=fixed;fontFamily=Times New Roman;fontSize=16;strokeWidth=2;" vertex="1" parent="1">
          <mxGeometry x="540" y="435" width="95" height="95" as="geometry" />
        </mxCell>
      </root>
    </mxGraphModel>
  </diagram>
</mxfile>
